# xmcd
#
# Track frame offsets:
#	150
#	15471
#	30699
#	44247
#	51238
#	65372
#	84136
#	102262
#	118446
#	137486
#
# Disc length: 2773 seconds
#
# Revision: 0
# Processed by: cddbd v1.5.2PL0 Copyright (c) Steve Scherf et al.
# Submitted via: dBpowerAMP V4.0
#
DISCID=850ad30a
DTITLE=Jon McKiel - The Nature of Things
DYEAR=2008
DGENRE=Folk
TTITLE0=War on you
TTITLE1=123 my friends
TTITLE2=poor heart
TTITLE3=walking with the dead
TTITLE4=Somebody's listening
TTITLE5=the cure
TTITLE6=Sleep Cities
TTITLE7=Dreams from the desert
TTITLE8=Get Caught
TTITLE9=Stars get their courage
EXTD=
EXTT0=
EXTT1=
EXTT2=
EXTT3=
EXTT4=
EXTT5=
EXTT6=
EXTT7=
EXTT8=
EXTT9=
PLAYORDER=
